<?xml version="1.0" encoding="UTF-8"?><svg xmlns="http://www.w3.org/2000/svg" xmlns:xlink="http://www.w3.org/1999/xlink" fill-opacity="1" color-rendering="auto" color-interpolation="auto" text-rendering="auto" stroke="black" stroke-linecap="square" width="511" stroke-miterlimit="10" shape-rendering="auto" stroke-opacity="1" fill="black" stroke-dasharray="none" font-weight="normal" stroke-width="1" height="156" font-family="'Dialog'" font-style="normal" stroke-linejoin="miter" font-size="12px" stroke-dashoffset="0" image-rendering="auto">
  <!--Generated by ySVG 2.5-->
  <defs id="genericDefs"/>
  <g>
    <defs id="defs1">
      <clipPath clipPathUnits="userSpaceOnUse" id="clipPath1">
        <path d="M0 0 L511 0 L511 156 L0 156 L0 0 Z"/>
      </clipPath>
      <clipPath clipPathUnits="userSpaceOnUse" id="clipPath2">
        <path d="M-763 -630 L-252 -630 L-252 -474 L-763 -474 L-763 -630 Z"/>
      </clipPath>
    </defs>
    <g fill="white" text-rendering="geometricPrecision" shape-rendering="geometricPrecision" transform="translate(763,630)" stroke="white">
      <rect x="-763" width="511" height="156" y="-630" clip-path="url(#clipPath2)" stroke="none"/>
    </g>
    <g text-rendering="geometricPrecision" stroke-miterlimit="1.45" shape-rendering="geometricPrecision" transform="matrix(1,0,0,1,763,630)" stroke-linecap="butt">
      <rect x="-537.3544" y="-614.4315" clip-path="url(#clipPath2)" fill="none" width="80" rx="20" ry="20" height="40"/>
      <text x="-518.7939" xml:space="preserve" y="-590.2772" clip-path="url(#clipPath2)" font-family="sans-serif" stroke="none">Quality</text>
    </g>
    <g text-rendering="geometricPrecision" stroke-miterlimit="1.45" shape-rendering="geometricPrecision" transform="matrix(1,0,0,1,763,630)" stroke-linecap="butt">
      <path fill="none" d="M-747.3544 -529.6315 L-667.3544 -529.6315 L-667.3544 -489.6315 L-747.3544 -489.6315 Z" clip-path="url(#clipPath2)"/>
      <text x="-728.7939" xml:space="preserve" y="-512.4616" clip-path="url(#clipPath2)" font-family="sans-serif" stroke="none">Quality</text>
      <text x="-738.4501" xml:space="preserve" y="-498.4928" clip-path="url(#clipPath2)" font-family="sans-serif" stroke="none">Assurance</text>
    </g>
    <g text-rendering="geometricPrecision" stroke-miterlimit="1.45" shape-rendering="geometricPrecision" transform="matrix(1,0,0,1,763,630)" stroke-linecap="butt">
      <path fill="none" d="M-347.9944 -529.6315 L-267.9944 -529.6315 L-267.9944 -489.6315 L-347.9944 -489.6315 Z" clip-path="url(#clipPath2)"/>
      <text x="-329.4339" xml:space="preserve" y="-512.4616" clip-path="url(#clipPath2)" font-family="sans-serif" stroke="none">Quality</text>
      <text x="-329.8147" xml:space="preserve" y="-498.4928" clip-path="url(#clipPath2)" font-family="sans-serif" stroke="none">Control</text>
    </g>
    <g text-rendering="geometricPrecision" stroke-miterlimit="1.45" shape-rendering="geometricPrecision" transform="matrix(1,0,0,1,763,630)" stroke-linecap="butt">
      <path fill="none" d="M-497.3544 -574.4377 L-497.3544 -549.6315 L-707.3544 -549.6315 L-707.3544 -529.6706" clip-path="url(#clipPath2)"/>
    </g>
    <g text-rendering="geometricPrecision" stroke-miterlimit="1.45" shape-rendering="geometricPrecision" transform="matrix(1,0,0,1,763,630)" stroke-linecap="butt">
      <path fill="none" d="M-497.3544 -574.4377 L-497.3544 -549.6315 L-307.9944 -549.6315 L-307.9944 -529.6706" clip-path="url(#clipPath2)"/>
    </g>
  </g>
</svg>
